<svg width="20" height="20" viewBox="0 0 20 20" fill="none" xmlns="http://www.w3.org/2000/svg">
<path fill-rule="evenodd" clip-rule="evenodd" d="M11.6666 1.875C12.0118 1.875 12.2916 2.15482 12.2916 2.5V5.83333C12.2916 5.88859 12.3136 5.94158 12.3526 5.98065C12.3917 6.01972 12.4447 6.04167 12.5 6.04167H15.8333C16.1785 6.04167 16.4583 6.32149 16.4583 6.66667C16.4583 7.01184 16.1785 7.29167 15.8333 7.29167H12.5C12.1132 7.29167 11.7423 7.13802 11.4688 6.86453C11.1953 6.59104 11.0416 6.22011 11.0416 5.83333V2.5C11.0416 2.15482 11.3214 1.875 11.6666 1.875Z" fill="#82C8E5"/>
<path fill-rule="evenodd" clip-rule="evenodd" d="M5.83329 3.125C5.55703 3.125 5.29207 3.23475 5.09672 3.4301C4.90137 3.62545 4.79163 3.8904 4.79163 4.16667V15.8333C4.79163 16.1096 4.90137 16.3746 5.09672 16.5699C5.29207 16.7653 5.55703 16.875 5.83329 16.875H14.1666C14.4429 16.875 14.7078 16.7653 14.9032 16.5699C15.0985 16.3746 15.2083 16.1096 15.2083 15.8333V6.92555L11.4077 3.125H5.83329ZM4.21284 2.54621C4.64261 2.11644 5.22551 1.875 5.83329 1.875H11.6666C11.8324 1.875 11.9914 1.94085 12.1086 2.05806L16.2752 6.22472C16.3924 6.34193 16.4583 6.50091 16.4583 6.66667V15.8333C16.4583 16.4411 16.2169 17.024 15.7871 17.4538C15.3573 17.8836 14.7744 18.125 14.1666 18.125H5.83329C5.2255 18.125 4.64261 17.8836 4.21284 17.4538C3.78307 17.024 3.54163 16.4411 3.54163 15.8333V4.16667C3.54163 3.55888 3.78307 2.97598 4.21284 2.54621Z" fill="#82C8E5"/>
<path fill-rule="evenodd" clip-rule="evenodd" d="M9.99996 8.54167C10.3451 8.54167 10.625 8.82149 10.625 9.16667V14.1667C10.625 14.5118 10.3451 14.7917 9.99996 14.7917C9.65478 14.7917 9.37496 14.5118 9.37496 14.1667V9.16667C9.37496 8.82149 9.65478 8.54167 9.99996 8.54167Z" fill="#82C8E5"/>
<path fill-rule="evenodd" clip-rule="evenodd" d="M7.05802 11.2247C7.3021 10.9806 7.69782 10.9806 7.9419 11.2247L9.99996 13.2828L12.058 11.2247C12.3021 10.9806 12.6978 10.9806 12.9419 11.2247C13.186 11.4688 13.186 11.8645 12.9419 12.1086L10.4419 14.6086C10.1978 14.8527 9.8021 14.8527 9.55802 14.6086L7.05802 12.1086C6.81394 11.8645 6.81394 11.4688 7.05802 11.2247Z" fill="#82C8E5"/>
</svg>
